<?xml version="1.0" encoding="utf-8" standalone="no"?>
<!DOCTYPE svg PUBLIC "-//W3C//DTD SVG 20010904//EN" "http://www.w3.org/TR/2001/REC-SVG-20010904/DTD/svg10.dtd">
<svg version="1.1" xmlns="http://www.w3.org/2000/svg" viewBox="-2100 -2100 4200 4200">
	<g id="Triagram" stroke="none" stroke-width="0" fill-rule="evenodd">
		<title>sinocode</title>
		<desc>triagram sinocode.</desc>

		<g fill="#FFFFFF" >
			<path d="M0-2050c1132.1837 0 2050 917.8163 2050 2050 0 1132.1837-917.8163 2050-2050 2050-1132.1837 0-2050-917.8163-2050-2050 0-1132.1837 917.8163-2050 2050-2050z"/>
		</g>

		<g id="line" fill="#EFEFEF" >
			<path d="M0-1000c-552.285 0-1000 447.715-1000 1000 0 552.285 447.715 1000 1000 1000 552.285 0 1000-447.715 1000-1000 0-552.285-447.715-1000-1000-1000z"/>
		</g>

		<g id="dotandline" fill="#000000" >
			<path d="M0-1000c 552.285 0 1000 447.715 1000 1000 0 552.285-447.715 1000-1000 1000-276.142 0-500-223.858-500-500 0-276.142 223.858-500 500-500 276.142 0 500-223.858 500-500 0-276.142-223.858-500-500-500M0 300c-110.457 0-200 89.543-200 200 0 110.457 89.543 200 200 200 110.457 0 200-89.543 200-200 0-110.457-89.543-200-200-200M0 -705c113.218 0 205 91.782 205 205 0 113.218-91.782 205-205 205-113.218 0-205-91.782-205-205 0-113.218 91.782-205 205-205zM-375-1840l0 100 750 0 0-100zm0 220l0 100 750 0 0-100zm0 220l0 100 750 0 0-100zM1035.911-1566.2415l-70.7107 70.7107 530.33 530.33 70.7107-70.7107zm-155.5365 155.5365l-70.7107 70.7107 530.33 530.33 70.7107-70.7107zm-155.5365 155.5365l-70.7107 70.7107 212.132 212.132 70.7107-70.7107zm318.198 318.198l-70.7107 70.7107 212.132 212.132 70.7107-70.7107zM1840-375l100 0 0 300-100 0zm0 450l100 0 0 300-100 0zm-220-450l100 0 0 750-100 0zm-220 0l100 0 0 300-100 0zm0 450l100 0 0 300-100 0zM1566.24 1035.91l-70.7107-70.7107-530.33 530.33 70.7107 70.7107zm-155.5635-155.5635l-70.7107-70.7107-212.132 212.132 70.7107 70.7107zm-318.198 318.198l-70.7107-70.7107-212.132 212.132 70.7107 70.7107zm162.63456-473.7615l-70.7107-70.7107-212.132 212.132 70.7107 70.7107zm-318.198 318.198l-70.7107-70.7107-212.132 212.132 70.7107 70.7107zM375 1845l0-100-300 0 0 100zm-450 0l0-100-300 0 0 100zm450-220l0-100-300 0 0 100zm-450 0l0-100-300 0 0 100zm450-220l0-100-300 0 0 100zm-450 0l0-100-300 0 0 100zM-1035.911 1566.2415l70.7107-70.7107-212.132-212.132-70.7107 70.7107zm-318.198-318.198l70.7107-70.7107-212.132-212.132-70.7107 70.7107zm473.7615 162.63456l70.7107-70.7107-212.132-212.132-70.7107 70.7107zm-318.198-318.198l70.7107-70.7107-212.132-212.132-70.7107 70.7107zm473.7615 162.63456l70.7107-70.7107-530.33-530.33-70.7107 70.7107zM-1840 375l100 0 0-750-100 0zm220 0l100 0 0-300-100 0zm0-450l100 0 0-300-100 0zm220 450l100 0 0-750-100 0zM-1566.24-1035.91l70.7107 70.7107 212.132-212.132-70.7107-70.7107zm318.198-318.198l70.7107 70.7107 212.132-212.132-70.7107-70.7107zm-162.63456 473.7615l70.7107 70.7107 530.33-530.33-70.7107-70.7107zm155.56349 155.56349l70.7107 70.7107 530.33-530.33-70.7107-70.7107z"
			/>
		</g>
	</g>
</svg>
